<svg xmlns="http://www.w3.org/2000/svg"><symbol width="48" height="48" viewBox="0 0 48 48" id="ic_access_alarms"><path d="M44 11.5l-9.2-7.7-2.6 3.1 9.2 7.7 2.6-3.1zM15.7 6.8l-2.6-3.1L4 11.5l2.6 3.1 9.1-7.8zM25 16h-3v12l9.5 5.7 1.5-2.5-8-4.7V16zm-1-8C14 8 6 16.1 6 26s8 18 18 18c9.9 0 18-8.1 18-18S33.9 8 24 8zm0 32c-7.7 0-14-6.3-14-14s6.3-14 14-14 14 6.3 14 14c0 7.8-6.3 14-14 14z"/></symbol><symbol width="48" height="48" viewBox="0 0 48 48" id="ic_access_time"><path d="M23.99 4C12.94 4 4 12.95 4 24s8.94 20 19.99 20C35.04 44 44 35.05 44 24S35.04 4 23.99 4zM24 40c-8.84 0-16-7.16-16-16S15.16 8 24 8s16 7.16 16 16-7.16 16-16 16zm1-26h-3v12l10.49 6.3L34 29.84l-9-5.34z"/></symbol><symbol width="48" height="48" viewBox="0 0 48 48" id="ic_add"><path d="M38 26H26v12h-4V26H10v-4h12V10h4v12h12v4z"/></symbol><symbol width="48" height="48" viewBox="0 0 48 48" id="ic_alarm_off"><path d="M24 12c7.73 0 14 6.27 14 14 0 1.69-.31 3.3-.86 4.8l3.04 3.04C41.34 31.47 42 28.81 42 26c0-9.94-8.06-18-18.01-18-2.81 0-5.46.66-7.84 1.81l3.05 3.05c1.5-.55 3.11-.86 4.8-.86zm20-.56l-9.19-7.71-2.57 3.06 9.19 7.71L44 11.44zM5.84 4.59L3.29 7.13l2.66 2.66-2.22 1.86 2.84 2.84 2.22-1.86 1.6 1.6C7.66 17.39 6 21.5 6 26c0 9.94 8.04 18 17.99 18 4.51 0 8.62-1.67 11.77-4.4l4.4 4.4 2.54-2.55L7.79 6.54 5.84 4.59zm27.1 32.19C30.51 38.79 27.4 40 24 40c-7.73 0-14-6.27-14-14 0-3.4 1.21-6.51 3.22-8.94l19.72 19.72zM16.03 6.55l-2.84-2.84-1.7 1.43 2.84 2.84 1.7-1.43z"/></symbol><symbol width="48" height="48" viewBox="0 0 48 48" id="ic_arrow_back"><path d="M40 22H15.66l11.17-11.17L24 8 8 24l16 16 2.83-2.83L15.66 26H40v-4z"/></symbol><symbol width="48" height="48" viewBox="0 0 48 48" id="ic_backspace"><path d="M44 6H14c-1.38 0-2.47.7-3.19 1.76L0 23.99l10.81 16.23C11.53 41.28 12.62 42 14 42h30c2.21 0 4-1.79 4-4V10c0-2.21-1.79-4-4-4zm-6 25.17L35.17 34 28 26.83 20.83 34 18 31.17 25.17 24 18 16.83 20.83 14 28 21.17 35.17 14 38 16.83 30.83 24 38 31.17z"/></symbol><symbol width="48" height="48" viewBox="0 0 48 48" id="ic_bookmark"><path d="M34 6H14c-2.21 0-3.98 1.79-3.98 4L10 42l14-6 14 6V10c0-2.21-1.79-4-4-4z"/></symbol><symbol width="48" height="48" viewBox="0 0 48 48" id="ic_check"><path d="M18 32.34L9.66 24l-2.83 2.83L18 38l24-24-2.83-2.83z"/></symbol><symbol width="48" height="48" viewBox="0 0 48 48" id="ic_check_box"><path d="M0 0h48v48H0z" fill="none"/><path d="M38 6H10c-2.21 0-4 1.79-4 4v28c0 2.21 1.79 4 4 4h28c2.21 0 4-1.79 4-4V10c0-2.21-1.79-4-4-4zM20 34L10 24l2.83-2.83L20 28.34l15.17-15.17L38 16 20 34z"/></symbol><symbol width="48" height="48" viewBox="0 0 48 48" id="ic_check_box_outline_blank"><path d="M38 10v28H10V10h28m0-4H10c-2.21 0-4 1.79-4 4v28c0 2.21 1.79 4 4 4h28c2.21 0 4-1.79 4-4V10c0-2.21-1.79-4-4-4z"/></symbol><symbol width="48" height="48" viewBox="0 0 48 48" id="ic_circle"><path d="M24 4C12.95 4 4 12.95 4 24s8.95 20 20 20 20-8.95 20-20S35.05 4 24 4zm0 36c-8.82 0-16-7.18-16-16S15.18 8 24 8s16 7.18 16 16-7.18 16-16 16z"/></symbol><symbol width="48" height="48" viewBox="0 0 48 48" id="ic_clear"><path d="M38 12.83L35.17 10 24 21.17 12.83 10 10 12.83 21.17 24 10 35.17 12.83 38 24 26.83 35.17 38 38 35.17 26.83 24z"/></symbol><symbol width="48" height="48" viewBox="0 0 48 48" id="ic_delete"><path d="M12 38c0 2.21 1.79 4 4 4h16c2.21 0 4-1.79 4-4V14H12v24zM38 8h-7l-2-2H19l-2 2h-7v4h28V8z"/></symbol><symbol width="48" height="48" viewBox="0 0 48 48" id="ic_expand_less"><path d="M24 16L12 28l2.83 2.83L24 21.66l9.17 9.17L36 28z"/></symbol><symbol width="48" height="48" viewBox="0 0 48 48" id="ic_expand_more"><path d="M33.17 17.17L24 26.34l-9.17-9.17L12 20l12 12 12-12z"/></symbol><symbol width="48" height="48" viewBox="0 0 48 48" id="ic_hourglass_empty"><path d="M12 5v10l9 9-9 9v10h24V33l-9-9 9-9V5H12zm20 29v5H16v-5l8-8 8 8zm-8-12l-8-8V9h16v5l-8 8z"/></symbol><symbol width="48" height="48" viewBox="0 0 48 48" id="ic_more_vert"><path d="M24 16c2.21 0 4-1.79 4-4s-1.79-4-4-4-4 1.79-4 4 1.79 4 4 4zm0 4c-2.21 0-4 1.79-4 4s1.79 4 4 4 4-1.79 4-4-1.79-4-4-4zm0 12c-2.21 0-4 1.79-4 4s1.79 4 4 4 4-1.79 4-4-1.79-4-4-4z"/></symbol><symbol width="48" height="48" viewBox="0 0 48 48" id="ic_notifications"><path d="M24 44c2.21 0 4-1.79 4-4h-8c0 2.21 1.79 4 4 4zm12-12V22c0-6.15-3.27-11.28-9-12.64V8c0-1.66-1.34-3-3-3s-3 1.34-3 3v1.36c-5.73 1.36-9 6.49-9 12.64v10l-4 4v2h32v-2l-4-4z"/></symbol><symbol width="48" height="48" viewBox="0 0 48 48" id="ic_notifications_active"><path d="M15.16 8.16L12.3 5.3C7.51 8.95 4.35 14.59 4.05 21h4c.31-5.3 3.04-9.94 7.11-12.84zM39.95 21h4c-.3-6.41-3.46-12.05-8.25-15.7l-2.85 2.85c4.06 2.91 6.79 7.55 7.1 12.85zM36 22c0-6.15-3.27-11.28-9-12.64V8c0-1.66-1.34-3-3-3s-3 1.34-3 3v1.36c-5.73 1.36-9 6.49-9 12.64v10l-4 4v2h32v-2l-4-4V22zM24 44c.28 0 .55-.03.81-.08 1.3-.27 2.37-1.17 2.88-2.36.2-.48.31-1 .31-1.56h-8c0 2.21 1.79 4 4 4z"/></symbol><symbol width="48" height="48" viewBox="0 0 48 48" id="ic_notifications_none"><path d="M24 44c2.21 0 4-1.79 4-4h-8c0 2.21 1.79 4 4 4zm12-12V22c0-6.15-3.27-11.28-9-12.64V8c0-1.66-1.34-3-3-3s-3 1.34-3 3v1.36c-5.73 1.36-9 6.49-9 12.64v10l-4 4v2h32v-2l-4-4zm-4 2H16V22c0-4.97 3.03-9 8-9s8 4.03 8 9v12z"/></symbol><symbol width="48" height="48" viewBox="0 0 48 48" id="ic_notifications_off"><path d="M40 37.39L15.68 12.3l-5.13-5.29L8 9.55l5.6 5.6.01.01C12.56 17.14 12 19.48 12 22v10l-4 4v2h27.46l4 4L42 39.45l-2-2.06zM24 44c2.21 0 4-1.79 4-4h-8c0 2.21 1.79 4 4 4zm12-14.64V22c0-6.15-3.27-11.28-9-12.64V8c0-1.66-1.34-3-3-3s-3 1.34-3 3v1.36c-.29.07-.57.15-.85.24-.21.07-.41.14-.61.22 0 0-.01 0-.01.01-.01 0-.02.01-.03.01-.46.18-.91.39-1.35.62-.01 0-.02.01-.03.01L36 29.36z"/></symbol><symbol width="48" height="48" viewBox="0 0 48 48" id="ic_notifications_paused"><path d="M24 44c2.21 0 4-1.79 4-4h-8c0 2.21 1.79 4 4 4zm12-12V22c0-6.15-3.27-11.28-9-12.64V8c0-1.66-1.34-3-3-3s-3 1.34-3 3v1.36c-5.73 1.36-9 6.49-9 12.64v10l-4 4v2h32v-2l-4-4zm-7-12.4l-5.6 6.8H29V30H19v-3.6l5.6-6.8H19V16h10v3.6z"/></symbol><symbol width="48" height="48" viewBox="0 0 48 48" id="ic_pause"><path d="M12 38h8V10h-8v28zm16-28v28h8V10h-8z"/></symbol><symbol width="48" height="48" viewBox="0 0 48 48" id="ic_play_arrow"><path d="M-838-2232H562v3600H-838z" fill="none"/><path d="M16 10v28l22-14z"/><path d="M0 0h48v48H0z" fill="none"/></symbol><symbol width="48" height="48" viewBox="0 0 48 48" id="ic_search"><path d="M31 28h-1.59l-.55-.55C30.82 25.18 32 22.23 32 19c0-7.18-5.82-13-13-13S6 11.82 6 19s5.82 13 13 13c3.23 0 6.18-1.18 8.45-3.13l.55.55V31l10 9.98L40.98 38 31 28zm-12 0c-4.97 0-9-4.03-9-9s4.03-9 9-9 9 4.03 9 9-4.03 9-9 9z"/></symbol><symbol width="48" height="48" viewBox="0 0 48 48" id="ic_timer"><path d="M30 2H18v4h12V2zm-8 26h4V16h-4v12zm16.05-13.23l2.85-2.85c-.86-1.03-1.8-1.97-2.83-2.83l-2.85 2.85C32.15 9.48 28.24 8 23.99 8 14.04 8 6 16.06 6 26s8.04 18 17.99 18S42 35.94 42 26c0-4.25-1.48-8.15-3.95-11.23zM24 40c-7.73 0-14-6.27-14-14s6.27-14 14-14 14 6.27 14 14-6.27 14-14 14z"/></symbol><symbol width="48" height="48" viewBox="0 0 48 48" id="ic_toys"><path d="M24 24c0-6.1 4.9-11 11-11s11 4.9 11 11H24zm0 0c0 6.1-4.9 11-11 11S2 30.1 2 24h22zm0 0c-6.1 0-11-4.9-11-11S17.9 2 24 2v22zm0 0c6.1 0 11 4.9 11 11s-4.9 11-11 11V24z"/></symbol></svg>